<svg width="169" height="45" viewBox="0 0 169 45" fill="none" xmlns="http://www.w3.org/2000/svg">
<path d="M0 0V45H26.5554L18.685 39.7149L35.8497 25.0851L5.86912 0H0Z" fill="url(#paint0_linear_1471_639)"/>
<path d="M52.0706 0V45H41.0251L32.7891 38.7383L50.3002 25.2L33.2701 10.7043L46.5478 0H52.0706Z" fill="#2E3191"/>
<path d="M55.4775 7.21915C56.0932 7.50638 57.0169 7.79362 57.979 7.79362C59.0182 7.79362 59.557 7.39149 59.557 6.79787C59.557 6.2234 59.0759 5.89787 57.8828 5.49574C56.2279 4.95957 55.1311 4.11702 55.1311 2.7766C55.1503 1.18723 56.5743 0 58.9412 0C60.0765 0 60.904 0.210638 61.5005 0.459574L61.0002 2.14468C60.5961 1.97234 59.8841 1.70426 58.9027 1.70426C57.9213 1.70426 57.4402 2.10638 57.4402 2.60426C57.4402 3.19787 57.9983 3.44681 59.2876 3.90638C61.0579 4.51915 61.8854 5.3617 61.8854 6.66383C61.8854 8.21489 60.5961 9.53617 57.8444 9.53617C56.709 9.53617 55.5737 9.24894 55.0156 8.9617L55.4775 7.21915Z" fill="#2E3191"/>
<path d="M71.8736 5.84017C71.8351 4.72953 71.7774 3.38911 71.7774 2.04868H71.7389C71.431 3.23592 70.9885 4.57634 70.6228 5.64868L69.4105 9.24868H67.6209L66.5818 5.66783C66.2547 4.57634 65.9083 3.25507 65.6774 2.04868H65.6389C65.5812 3.29336 65.5427 4.72953 65.4657 5.87847L65.2733 9.38272H63.1758L63.8108 0.133789H66.832L67.8134 3.21677C68.1405 4.26996 68.4291 5.47634 68.66 6.56783H68.6985C68.9872 5.49549 69.3143 4.23166 69.6414 3.21677L70.719 0.152938H73.6632L74.2213 9.40187H72.0083L71.8736 5.84017Z" fill="#2E3191"/>
<path d="M76.0282 7.21915C76.644 7.50638 77.5677 7.79362 78.5298 7.79362C79.5689 7.79362 80.127 7.39149 80.127 6.79787C80.127 6.2234 79.6459 5.89787 78.4529 5.49574C76.798 4.95957 75.7011 4.11702 75.7011 2.7766C75.7011 1.20638 77.1251 0 79.492 0C80.6273 0 81.4548 0.210638 82.0513 0.459574L81.551 2.14468C81.1469 1.97234 80.4349 1.70426 79.4535 1.70426C78.4721 1.70426 77.991 2.10638 77.991 2.60426C77.991 3.19787 78.5491 3.44681 79.8383 3.90638C81.6087 4.51915 82.4362 5.3617 82.4362 6.66383C82.4362 8.21489 81.1469 9.53617 78.3951 9.53617C77.2598 9.53617 76.1245 9.24894 75.5664 8.9617L76.0282 7.21915Z" fill="#2E3191"/>
<path d="M57.673 16.5825V20.1251H61.4062V16.5825H63.6576V25.8315H61.4062V21.9634H57.673V25.8315H55.4023V16.5825H57.673Z" fill="#2E3191"/>
<path d="M67.9297 17.272C67.9297 17.8465 67.4486 18.3061 66.7173 18.3061C66.0054 18.3061 65.5243 17.8465 65.5435 17.272C65.5243 16.6593 66.0054 16.2188 66.7366 16.2188C67.4486 16.1997 67.9104 16.6593 67.9297 17.272ZM65.6013 25.8316V19.1295H67.8527V25.8316H65.6013Z" fill="#2E3191"/>
<path d="M76.5314 24.8553C76.5314 26.1383 76.2427 27.1915 75.4345 27.8808C74.6263 28.5127 73.5487 28.7042 72.4904 28.7042C71.5474 28.7042 70.5276 28.5319 69.8733 28.1872L70.3159 26.617C70.7777 26.8659 71.5859 27.134 72.4134 27.134C73.491 27.134 74.2992 26.5978 74.2992 25.3723V24.8936H74.28C73.8566 25.4489 73.1446 25.7744 72.3172 25.7744C70.5276 25.7744 69.2383 24.434 69.2383 22.5C69.2383 20.3553 70.7585 18.9766 72.5288 18.9766C73.5295 18.9766 74.1453 19.3787 74.5109 19.9149H74.5494L74.6263 19.1106H76.5891C76.5506 19.5319 76.5314 20.1063 76.5314 21.1021V24.8553ZM74.28 21.8489C74.28 21.7149 74.2607 21.5808 74.2415 21.4659C74.0875 20.9106 73.6449 20.5468 73.0292 20.5468C72.2209 20.5468 71.5474 21.2361 71.5474 22.4617C71.5474 23.4574 72.0862 24.2425 73.0292 24.2425C73.6064 24.2425 74.0683 23.8787 74.2222 23.4C74.28 23.2468 74.2992 23.0361 74.2992 22.8446V21.8489H74.28Z" fill="#2E3191"/>
<path d="M78.3398 16.104H80.5913V19.9338H80.6298C80.8607 19.6466 81.1686 19.4168 81.5149 19.2444C81.8613 19.0721 82.2654 18.9763 82.6888 18.9763C84.132 18.9763 85.2288 19.8955 85.2288 21.9061V25.8317H82.9774V22.1359C82.9774 21.2551 82.6503 20.6614 81.8036 20.6614C81.207 20.6614 80.8414 21.0253 80.6682 21.3891C80.6105 21.5232 80.5913 21.6955 80.5913 21.8487V25.8317H78.3398V16.104V16.104Z" fill="#2E3191"/>
<path d="M88.7682 23.1509C88.8452 24.0126 89.7689 24.4339 90.808 24.4339C91.5777 24.4339 92.1935 24.3382 92.8093 24.1658L93.0979 25.5828C92.3474 25.8509 91.443 26.0041 90.4616 26.0041C87.9985 26.0041 86.5938 24.6828 86.5938 22.5765C86.5938 20.8722 87.7291 18.9956 90.2499 18.9956C92.5976 18.9956 93.4828 20.6807 93.4828 22.3467C93.4828 22.7105 93.4443 23.0169 93.4058 23.1701H88.7682V23.1509ZM91.4238 21.7148C91.4238 21.2169 91.1928 20.3552 90.1537 20.3552C89.2108 20.3552 88.8259 21.1594 88.7682 21.7148H91.4238Z" fill="#2E3191"/>
<path d="M94.8702 21.3319C94.8702 20.3361 94.8317 19.7042 94.8125 19.1298H96.756L96.833 20.3553H96.8907C97.2564 19.3787 98.1608 18.9766 98.8535 18.9766C99.0652 18.9766 99.1614 18.9766 99.3346 18.9957V20.9681C99.1807 20.9298 98.969 20.8915 98.7188 20.8915C97.8914 20.8915 97.3333 21.3127 97.1794 21.9446C97.1409 22.0787 97.1409 22.251 97.1409 22.4042V25.8127H94.8702V21.3319Z" fill="#2E3191"/>
<path d="M109.513 21.9256H105.837V24.1277H109.955V25.8319H103.586V16.583H109.763V18.3064H105.837V20.2213H109.513V21.9256Z" fill="#2E3191"/>
<path d="M118.385 16.1041V23.8403C118.385 24.5871 118.423 25.3913 118.442 25.8509H116.441L116.345 24.8552H116.306C115.845 25.602 114.979 25.985 114.036 25.985C112.323 25.985 110.938 24.6254 110.938 22.5382C110.918 20.2786 112.458 18.9765 114.19 18.9765C115.075 18.9765 115.768 19.2637 116.095 19.7233H116.133V16.085H118.385V16.1041ZM116.133 21.9637C116.133 21.8488 116.114 21.6956 116.095 21.5999C115.96 21.0445 115.479 20.5658 114.767 20.5658C113.747 20.5658 113.208 21.4084 113.208 22.4807C113.208 23.6105 113.824 24.3382 114.748 24.3382C115.402 24.3382 115.922 23.936 116.056 23.3424C116.095 23.1892 116.114 23.036 116.114 22.8637V21.9637H116.133Z" fill="#2E3191"/>
<path d="M125.137 25.832L125.04 24.8937H125.002C124.675 25.3533 124.001 25.9852 122.731 25.9852C121.269 25.9852 120.172 25.1809 120.172 23.0554V19.1299H122.443V22.7299C122.443 23.6682 122.75 24.3001 123.578 24.3001C124.194 24.3001 124.559 23.9171 124.713 23.5724C124.752 23.4575 124.79 23.3043 124.79 23.1129V19.1299H127.061V23.6873C127.061 24.5682 127.099 25.2767 127.119 25.832H125.137Z" fill="#2E3191"/>
<path d="M134.299 25.6787C133.895 25.851 133.144 25.9851 132.278 25.9851C129.931 25.9851 128.43 24.6638 128.43 22.5383C128.43 20.5851 129.892 18.9766 132.586 18.9766C133.183 18.9766 133.837 19.0723 134.299 19.2446L133.933 20.7957C133.664 20.6808 133.26 20.5851 132.682 20.5851C131.489 20.5851 130.72 21.3702 130.739 22.4617C130.739 23.6872 131.624 24.3383 132.721 24.3383C133.26 24.3383 133.664 24.2617 134.01 24.1276L134.299 25.6787Z" fill="#2E3191"/>
<path d="M141.652 24.2042C141.652 24.8553 141.69 25.468 141.748 25.8319H139.708L139.574 25.1617H139.535C139.054 25.6978 138.323 25.9851 137.457 25.9851C135.995 25.9851 135.109 24.9893 135.109 23.9361C135.109 22.1936 136.803 21.351 139.362 21.3702V21.2744C139.362 20.9106 139.15 20.4127 138.034 20.4127C137.284 20.4127 136.514 20.6425 136.033 20.9106L135.61 19.5702C136.11 19.3021 137.111 18.9766 138.419 18.9766C140.844 18.9766 141.614 20.2978 141.614 21.8681V24.2042H141.652ZM139.458 22.6723C138.265 22.6532 137.361 22.9212 137.361 23.7255C137.361 24.2617 137.746 24.5298 138.246 24.5298C138.804 24.5298 139.266 24.1851 139.42 23.7638C139.458 23.6489 139.458 23.534 139.458 23.4V22.6723Z" fill="#2E3191"/>
<path d="M145.847 17.2148V19.1297H147.464V20.6616H145.847V23.0936C145.847 23.8978 146.059 24.2808 146.732 24.2808C147.021 24.2808 147.233 24.2616 147.406 24.2233L147.425 25.7936C147.137 25.9085 146.598 25.985 145.963 25.985C145.231 25.985 144.635 25.7361 144.269 25.3914C143.846 24.9893 143.654 24.3574 143.654 23.3999V20.6616H142.691V19.1297H143.654V17.6744L145.847 17.2148Z" fill="#2E3191"/>
<path d="M151.102 17.2725C151.102 17.847 150.62 18.3066 149.889 18.3066C149.177 18.3066 148.696 17.847 148.715 17.2725C148.696 16.6598 149.177 16.2193 149.908 16.2193C150.62 16.2002 151.082 16.6598 151.102 17.2725ZM148.773 25.8321V19.13H151.025V25.8321H148.773Z" fill="#2E3191"/>
<path d="M159.992 22.4808C159.992 24.9893 157.914 25.9851 156.105 25.9851C154.046 25.9851 152.41 24.6829 152.41 22.4808C152.41 20.2212 154.142 18.9766 156.278 18.9766C158.472 18.9766 159.992 20.317 159.992 22.4808ZM154.739 22.5C154.739 23.5723 155.2 24.4915 156.201 24.4915C157.202 24.4915 157.644 23.5915 157.644 22.5C157.644 21.5425 157.298 20.451 156.201 20.451C155.104 20.451 154.739 21.5617 154.739 22.5Z" fill="#2E3191"/>
<path d="M161.398 21.2744C161.398 20.4319 161.359 19.7234 161.34 19.1298H163.303L163.399 20.0489H163.437C163.726 19.6276 164.476 18.9766 165.67 18.9766C167.151 18.9766 168.267 19.8766 168.267 21.8489V25.8319H166.016V22.117C166.016 21.2553 165.689 20.6617 164.881 20.6617C164.265 20.6617 163.88 21.0638 163.745 21.4468C163.687 21.5808 163.649 21.7723 163.649 21.9638V25.8319H161.398V21.2744Z" fill="#2E3191"/>
<path d="M63.7555 41.8593C63.0628 42.07 61.735 42.3764 60.4265 42.3764C58.5984 42.3764 57.2899 41.9551 56.3662 41.1317C55.4425 40.3274 54.9422 39.121 54.9615 37.7806C54.9807 34.7168 57.3861 32.9551 60.6766 32.9551C61.9659 32.9551 62.9666 33.1849 63.4476 33.4147L62.9666 35.0806C62.4278 34.87 61.735 34.6785 60.6382 34.6785C58.7523 34.6785 57.3284 35.6742 57.3284 37.6657C57.3284 39.5806 58.6176 40.6913 60.465 40.6913C60.9845 40.6913 61.4079 40.6338 61.5811 40.5572V38.6232H60.0416V36.9955H63.7748V41.8593H63.7555Z" fill="#2E3191"/>
<path d="M65.4835 37.7997C65.4835 36.8039 65.445 36.172 65.4258 35.5975H67.3693L67.4463 36.8231H67.504C67.8696 35.8465 68.7741 35.4443 69.4668 35.4443C69.6785 35.4443 69.7747 35.4443 69.9479 35.4635V37.4358C69.7939 37.3975 69.6015 37.3592 69.3321 37.3592C68.5047 37.3592 67.9274 37.7614 67.7927 38.4124C67.7542 38.5465 67.7542 38.7188 67.7542 38.872V42.2805H65.5028V37.7997H65.4835Z" fill="#2E3191"/>
<path d="M78.1677 38.93C78.1677 41.4385 76.0894 42.4343 74.2806 42.4343C72.2216 42.4343 70.5859 41.1322 70.5859 38.93C70.5859 36.6705 72.3178 35.4258 74.4538 35.4258C76.6475 35.4258 78.1677 36.7662 78.1677 38.93ZM72.9336 38.9492C72.9336 40.0215 73.3954 40.9407 74.3961 40.9407C75.3967 40.9407 75.8585 40.0407 75.8585 38.9492C75.8585 37.9917 75.5122 36.9002 74.3961 36.9002C73.28 36.9194 72.9336 38.0109 72.9336 38.9492Z" fill="#2E3191"/>
<path d="M84.5194 42.2813L84.4232 41.343H84.3847C84.0576 41.8026 83.384 42.4345 82.114 42.4345C80.6515 42.4345 79.5547 41.6303 79.5547 39.5047V35.5601H81.8254V39.1601C81.8254 40.0984 82.1333 40.7303 82.9607 40.7303C83.5765 40.7303 83.9421 40.3473 84.096 40.0026C84.1345 39.8877 84.173 39.7345 84.173 39.543V35.5601H86.4052V40.1175C86.4052 40.9984 86.4437 41.7069 86.4629 42.2622H84.5194V42.2813Z" fill="#2E3191"/>
<path d="M88.214 37.8384C88.214 36.9576 88.1755 36.2108 88.1562 35.598H90.119L90.2152 36.5363H90.2537C90.7925 35.8278 91.62 35.4448 92.6783 35.4448C94.2563 35.4448 95.6803 36.7278 95.6803 38.8533C95.6803 41.2852 94.0061 42.4533 92.3897 42.4533C91.5045 42.4533 90.831 42.1278 90.5039 41.6874H90.4654V45.0001H88.214V37.8384ZM90.4846 39.4087C90.4846 39.581 90.5039 39.715 90.5231 39.8491C90.6771 40.4044 91.1966 40.8448 91.8509 40.8448C92.8323 40.8448 93.4096 40.098 93.4096 38.9491C93.4096 37.8767 92.89 37.0725 91.8894 37.0725C91.2544 37.0725 90.6963 37.5129 90.5424 38.1257C90.5039 38.2406 90.5039 38.3746 90.5039 38.4895V39.4087H90.4846Z" fill="#2E3191"/>
<defs>
<linearGradient id="paint0_linear_1471_639" x1="0" y1="22.5023" x2="35.8479" y2="22.5023" gradientUnits="userSpaceOnUse">
<stop stop-color="#00ADEE"/>
<stop offset="0.9663" stop-color="#2E3191"/>
<stop offset="1"/>
</linearGradient>
</defs>
</svg>
